<svg viewBox="0 0 800 420" xmlns="http://www.w3.org/2000/svg" role="img" aria-label="AI agent network illustration">
  <rect width="800" height="420" fill="#f7f6f2"/>
  <rect x="1" y="1" width="798" height="418" fill="none" stroke="#ded8ce"/>
  <circle cx="400" cy="210" r="70" fill="#294d33"/>
  <circle cx="400" cy="210" r="70" fill="none" stroke="#f5a900" stroke-width="3" stroke-dasharray="6 8"/>
  <text x="400" y="217" text-anchor="middle" font-family="Inter,sans-serif" font-size="18" font-weight="900" fill="#fff">AI Agent</text>
  <g stroke="#294d33" stroke-width="2">
    <line x1="330" y1="210" x2="180" y2="120"/>
    <line x1="330" y1="210" x2="180" y2="210"/>
    <line x1="330" y1="210" x2="180" y2="300"/>
    <line x1="470" y1="210" x2="620" y2="120"/>
    <line x1="470" y1="210" x2="620" y2="210"/>
    <line x1="470" y1="210" x2="620" y2="300"/>
  </g>
  <g fill="#fff" stroke="#294d33" stroke-width="2">
    <rect x="110" y="96" width="140" height="48" rx="10"/>
    <rect x="110" y="186" width="140" height="48" rx="10"/>
    <rect x="110" y="276" width="140" height="48" rx="10"/>
    <rect x="550" y="96" width="140" height="48" rx="10"/>
    <rect x="550" y="186" width="140" height="48" rx="10"/>
    <rect x="550" y="276" width="140" height="48" rx="10"/>
  </g>
  <g font-family="Inter,sans-serif" font-size="13" font-weight="700" fill="#171717">
    <text x="180" y="124" text-anchor="middle">WhatsApp</text>
    <text x="180" y="214" text-anchor="middle">Your data</text>
    <text x="180" y="304" text-anchor="middle">Calendar</text>
    <text x="620" y="124" text-anchor="middle">Reply</text>
    <text x="620" y="214" text-anchor="middle">Booking</text>
    <text x="620" y="304" text-anchor="middle">Handoff</text>
  </g>
</svg>
